# xmcd
#
# Track frame offsets: 
#        182
#        9520
#        25000
#        39975
#        53857
#        65430
#        92487
#        115740
#        132015
#        150440
#        165197
#        177335
#        199625
#        214667
#        229635
#
# Disc length: 3205 seconds
#
# Revision: 0
# Processed by: cddbd v1.5.2PL0 Copyright (c) Steve Scherf et al.
# Submitted via: ExactAudioCopy v0.99pb5
#
DISCID=ab0c830f
DTITLE=Various Artist - Honig Homeblues collection
DYEAR=1993
DGENRE=Blues
TTITLE0=Lena Horne - You do something to me
TTITLE1=Helen Humes - Baby won't you please come home
TTITLE2=Buddy Guy - Broken hearted blues
TTITLE3=Muddy Waters - Lonesome road blues
TTITLE4=Nina Simone - I wan't a little sugar in my bowl!
TTITLE5=John Lee Hooker - Five long years
TTITLE6=B. B. King - The thrill is gone
TTITLE7=The blues band - Lonely avenue
TTITLE8=Ruby Turner - I'd rather go blind
TTITLE9=A. J. Groce - Smokin' good time
TTITLE10=J. J. Cale - Lady luck
TTITLE11=Tuck and Patti - Takes my breath away
TTITLE12=Gary Moore - Parisienne walkways
TTITLE13=Brendan Croker and the 5 o'clock shadows featuring Eric Clapt
TTITLE13=on - This kind of live
TTITLE14=Lena Horne - Get out of town
EXTD=
EXTT0=
EXTT1=
EXTT2=
EXTT3=
EXTT4=
EXTT5=
EXTT6=
EXTT7=
EXTT8=
EXTT9=
EXTT10=
EXTT11=
EXTT12=
EXTT13=
EXTT14=
PLAYORDER=
